<?xml version="1.0" encoding="UTF-8"?>
<svg version="1.1" xmlns="http://www.w3.org/2000/svg" viewBox="90 195 320 95" preserveAspectRatio="xMidYMid meet">
<path d="M0 0 C5.25964307 3.32258782 6.7871974 6.10548906 8.20703125 12.09570312 C8.47580078 13.37864258 8.47580078 13.37864258 8.75 14.6875 C9.1347565 16.40106783 9.52512219 18.11338869 9.921875 19.82421875 C10.08268555 20.57791748 10.24349609 21.33161621 10.40917969 22.1081543 C10.90694979 24.21639627 10.90694979 24.21639627 13 26 C16.53217579 25.67889311 19.63449506 25.12183498 23 24 C27.77825326 23.6083399 30.10191565 23.55912223 34.4375 25.6875 C37.22067989 28.19915015 37.79570164 29.3226295 38 33 C35.69 34.65 33.38 36.3 31 38 C31.42778913 42.08240217 31.42778913 42.08240217 33.125 45.75 C35.12792464 47.23528361 35.12792464 47.23528361 38.4375 47.875 C42.60637296 49.1914862 43.95111787 50.158346 46 54 C45.9375 57.6875 45.9375 57.6875 45 61 C40.92297305 63.71801797 37.78754068 63.74195165 33 63 C26.392479 60.29406283 21.14410719 54.79878518 16 50 C12.45126822 51.36826577 12.45126822 51.36826577 9.125 53.1875 C5.79600039 54.46035279 3.42177113 53.82594476 0 53 C-3.7828423 50.89033795 -6.89911919 48.85161482 -9 45 C-9.49269786 41.79746389 -9.3098184 40.46472759 -7.5 37.75 C-4.58109093 32.3986667 -5.53765098 27.42312989 -7.125 21.8125 C-7.79528574 19.54075898 -8.48984132 17.28131573 -9.22070312 15.02832031 C-11.47640867 7.99450345 -11.47640867 7.99450345 -11 4 C-7.997962 -0.44301624 -5.15623556 -0.80010552 0 0 Z " fill="#040404" transform="translate(106,213)"/>
<path d="M0 0 C5.39109005 4.10749718 8.70469101 10.38085224 10 17 C10.2198223 19.24707241 10.40483987 21.49771238 10.5625 23.75 C10.64628906 24.92046875 10.73007812 26.0909375 10.81640625 27.296875 C10.87699219 28.18890625 10.93757813 29.0809375 11 30 C11.90363281 30.39832031 12.80726563 30.79664063 13.73828125 31.20703125 C14.91777344 31.73683594 16.09726562 32.26664063 17.3125 32.8125 C19.07013672 33.59560547 19.07013672 33.59560547 20.86328125 34.39453125 C23.51274209 35.75060647 25.12768388 36.7491651 27 39 C22.68843334 43.0846421 18.64960112 45.16965221 13.07421875 47.203125 C11.04184442 47.82266077 11.04184442 47.82266077 10 49 C9.84084709 51.06014601 9.72295071 53.12353854 9.625 55.1875 C9.26289424 60.50811851 8.93902305 65.06097695 5 69 C-1.1723672 69.58229879 -1.1723672 69.58229879 -4.1875 67.4609375 C-6.60114645 64.18378823 -6.63146167 61.2389191 -6.6875 57.3125 C-6.41701938 52.79138683 -6.41701938 52.79138683 -8 49 C-9.35937335 48.97387256 -10.72011876 49.01181047 -12.078125 49.078125 C-12.90957031 49.10390625 -13.74101562 49.1296875 -14.59765625 49.15625 C-16.35090596 49.21822053 -18.10367389 49.29607535 -19.85546875 49.390625 C-24.3481727 49.50138504 -26.34603915 49.48234819 -30.06640625 46.73828125 C-32.7057685 43.00051775 -32.7057685 43.00051775 -32.6875 39.9375 C-32 36 -32 36 -29.875 33.5625 C-25.41597684 31.10197879 -20.10951718 31.41091315 -15.14453125 31.2734375 C-11.83904748 31.23975113 -11.83904748 31.23975113 -9 29 C-8.63216061 26.33204827 -8.63216061 26.33204827 -8.8125 23.22265625 C-8.83570313 22.06958984 -8.85890625 20.91652344 -8.8828125 19.72851562 C-8.96081276 17.28840747 -9.03893736 14.84830328 -9.1171875 12.40820312 C-9.14039063 11.25384766 -9.16359375 10.09949219 -9.1875 8.91015625 C-9.23970703 7.31892944 -9.23970703 7.31892944 -9.29296875 5.69555664 C-9 3 -9 3 -7.66796875 1.16186523 C-4.98443607 -0.70741638 -3.17933727 -0.50869396 0 0 Z " fill="#040404" transform="translate(293,201)"/>
<path d="M0 0 C3.03360889 0.77784843 4.44273818 2.25026557 6.3203125 4.7109375 C7.94852551 7.50053321 8.72060868 10.43342436 9.609375 13.5234375 C10.4031994 15.95810705 10.4031994 15.95810705 13.1875 18.3125 C15.4375 20.625 15.4375 20.625 15.5 23.8125 C14.4375 26.625 14.4375 26.625 12.71875 27.78515625 C9.98483917 28.7916474 7.78446061 28.8908338 4.875 28.875 C3.44994141 28.88273437 3.44994141 28.88273437 1.99609375 28.890625 C-0.5625 28.625 -0.5625 28.625 -3.5625 26.625 C-6.01965742 26.05712403 -6.01965742 26.05712403 -8.5625 26.625 C-10.73504587 28.70511026 -10.73504587 28.70511026 -12.5625 31.4375 C-15.23714777 35.17445747 -17.38967566 37.60715536 -21.5625 39.625 C-26.13980035 40.20624449 -29.19410005 40.33044937 -33.0625 37.6875 C-35.9366624 34.16665106 -36.46221331 32.52652293 -36.14453125 28.09375 C-34.56275448 21.38446867 -30.19184506 15.19486577 -24.81640625 10.92578125 C-20.78553382 8.59947186 -16.39260565 7.27813789 -11.96484375 5.8984375 C-7.67900982 4.29432514 -4.38799796 1.0702434 0 0 Z " fill="#040404" transform="translate(359.5625,238.375)"/>
<path d="M0 0 C3.03360889 0.77784843 4.44273818 2.25026557 6.3203125 4.7109375 C7.94852551 7.50053321 8.72060868 10.43342436 9.609375 13.5234375 C10.4031994 15.95810705 10.4031994 15.95810705 13.1875 18.3125 C15.4375 20.625 15.4375 20.625 15.5 23.8125 C14.4375 26.625 14.4375 26.625 12.71875 27.78515625 C9.98483917 28.7916474 7.78446061 28.8908338 4.875 28.875 C3.44994141 28.88273437 3.44994141 28.88273437 1.99609375 28.890625 C-0.5625 28.625 -0.5625 28.625 -3.5625 26.625 C-6.01965742 26.05712403 -6.01965742 26.05712403 -8.5625 26.625 C-10.73504587 28.70511026 -10.73504587 28.70511026 -12.5625 31.4375 C-15.23714777 35.17445747 -17.38967566 37.60715536 -21.5625 39.625 C-26.13980035 40.20624449 -29.19410005 40.33044937 -33.0625 37.6875 C-35.9366624 34.16665106 -36.46221331 32.52652293 -36.14453125 28.09375 C-34.56275448 21.38446867 -30.19184506 15.19486577 -24.81640625 10.92578125 C-20.78553382 8.59947186 -16.39260565 7.27813789 -11.96484375 5.8984375 C-7.67900982 4.29432514 -4.38799796 1.0702434 0 0 Z " fill="#040404" transform="translate(191.5625,238.375)"/>
<path d="M0 0 C3.5796096 0.12419959 5.28928139 1.02714783 8.15234375 3.109375 C7.96081167 6.55695245 7.40638496 7.86239049 4.90234375 10.296875 C0.75731719 12.8181807 -3.99088903 13.02309434 -8.7265625 13.51953125 C-12.07903771 14.15310291 -14.10703546 15.10250198 -16.84765625 17.109375 C-20.32125209 22.77004971 -21.7884095 28.66952579 -22.28515625 35.234375 C-22.62557563 39.22822383 -23.26600187 41.90812357 -25.84765625 45.109375 C-28.7506143 46.56085403 -30.62027404 46.48176525 -33.84765625 46.109375 C-36.77703279 44.29627358 -39.28413574 42.23641601 -40.84765625 39.109375 C-41.32107267 35.35249498 -41.50158446 31.57582084 -41.72265625 27.796875 C-41.80773437 26.75080078 -41.8928125 25.70472656 -41.98046875 24.62695312 C-42.41412114 16.88527234 -42.41412114 16.88527234 -39.62890625 13.0703125 C-38.71109375 12.42320312 -37.79328125 11.77609375 -36.84765625 11.109375 C-36.11804688 10.56152344 -35.3884375 10.01367188 -34.63671875 9.44921875 C-33.92257813 8.98644531 -33.2084375 8.52367187 -32.47265625 8.046875 C-31.76367188 7.58152344 -31.0546875 7.11617187 -30.32421875 6.63671875 C-29.50695312 6.13269531 -28.6896875 5.62867188 -27.84765625 5.109375 C-26.23503906 4.05169922 -26.23503906 4.05169922 -24.58984375 2.97265625 C-20.56627067 0.69566244 -16.90180126 0.44899145 -12.34765625 0.359375 C-11.62707031 0.32972656 -10.90648437 0.30007812 -10.1640625 0.26953125 C-6.77721073 0.14091663 -3.38799331 0.09630844 0 0 Z " fill="#030303" transform="translate(257.84765625,223.890625)"/>
<path d="M0 0 C3.49734804 3.09992213 5.75026787 5.12700899 6.375 9.8125 C6 13 6 13 4.0625 15.8125 C0.13387621 18.61865985 -3.17754391 19.58481277 -8 19 C-11.57568274 16.296435 -11.93151165 14.47941847 -12.5625 10.0625 C-12.33988001 5.36076589 -10.29769346 3.21917695 -7 0 C-4.19664415 -1.40167793 -2.9650644 -0.96536981 0 0 Z " fill="#060605" transform="translate(396,255)"/>
</svg>

