<?xml version="1.0" encoding="UTF-8"?>
<svg version="1.1" xmlns="http://www.w3.org/2000/svg" width="500" height="500">
<path d="M0 0 C18.14027877 13.31112606 21.78860192 33.17606261 26.2265625 54.04296875 C30.0236655 78.46415865 30.0236655 78.46415865 43.6015625 97.4921875 C49.82837181 100.60559215 59.59380554 96.57757012 65.8515625 94.6796875 C66.76905273 94.41269043 67.68654297 94.14569336 68.63183594 93.87060547 C72.60229489 92.71180006 76.55562157 91.52415675 80.4765625 90.20703125 C92.62447166 86.28426892 105.24094789 86.09074073 117.6015625 89.4921875 C117.6015625 90.1521875 117.6015625 90.8121875 117.6015625 91.4921875 C118.48714844 91.74871094 119.37273437 92.00523437 120.28515625 92.26953125 C127.97028647 95.10280069 134.19183637 100.83566996 137.76171875 108.19140625 C139.54472944 113.07602622 140.44158838 117.39212279 138.4765625 122.3046875 C133.93938987 127.59805557 128.25553369 130.37737896 122.12890625 133.40429688 C117.00256473 136.02960511 112.50696938 138.77596685 110.6015625 144.4921875 C109.7678751 153.66274894 112.34796343 162.28968863 118.2265625 169.4296875 C125.459162 176.71488772 132.88535681 178.64910865 142.7265625 180.3671875 C150.38603205 181.73716825 155.75034 183.00321214 160.6015625 189.4921875 C161.21902344 190.25917969 161.83648437 191.02617187 162.47265625 191.81640625 C166.62886274 197.3205716 169.37225522 202.98427182 171.6015625 209.4921875 C171.9315625 209.4921875 172.2615625 209.4921875 172.6015625 209.4921875 C172.6015625 211.4721875 172.6015625 213.4521875 172.6015625 215.4921875 C172.2715625 215.4921875 171.9415625 215.4921875 171.6015625 215.4921875 C171.44300781 216.06066406 171.28445313 216.62914062 171.12109375 217.21484375 C168.62124595 225.48782073 165.26589816 231.23422324 157.6015625 235.4921875 C156.9415625 235.4921875 156.2815625 235.4921875 155.6015625 235.4921875 C155.2715625 236.1521875 154.9415625 236.8121875 154.6015625 237.4921875 C138.37508777 242.30118097 119.44237233 237.21228887 105.046875 229.5390625 C94.95416727 223.69439909 86.07871493 216.46689473 77.6015625 208.4921875 C76.51739587 207.50716196 75.43134735 206.52420502 74.34375 205.54296875 C68.91892287 200.63058961 63.67707531 195.73906846 58.96875 190.1171875 C57.29168601 188.12387716 55.47995243 186.29544183 53.6015625 184.4921875 C50.91828951 185.76879944 48.53083797 187.16631769 46.1328125 188.91796875 C34.14980962 197.51343452 21.98530602 205.38584878 6.6015625 203.4921875 C-10.85257329 198.96043971 -29.30320843 187.96077152 -38.74609375 172.25 C-42.14981904 165.58894621 -43.11720236 160.75739604 -41.3984375 153.4921875 C-39.38483755 149.54808855 -36.70787356 146.17366389 -33.99609375 142.69140625 C-25.06697966 130.88543473 -26.43109252 116.50434263 -28.3359375 102.4921875 C-28.93571304 98.35125193 -28.93571304 98.35125193 -30.3984375 94.4921875 C-30.67168089 92.3235892 -30.84300223 90.15500574 -31.01953125 87.9765625 C-31.47413081 84.99588911 -32.43439323 82.34976674 -33.3984375 79.4921875 C-34.1215758 76.69251445 -34.76011832 73.8747617 -35.3984375 71.0546875 C-36.9314812 64.31767906 -38.61492896 57.66728049 -40.8359375 51.1171875 C-41.09117187 50.36050781 -41.34640625 49.60382813 -41.609375 48.82421875 C-41.86976563 48.05464844 -42.13015625 47.28507812 -42.3984375 46.4921875 C-43.16886344 44.18472366 -43.93719786 41.87666006 -44.69921875 39.56640625 C-45.31545244 37.73836106 -45.9784274 35.92621477 -46.6484375 34.1171875 C-47.3984375 31.4921875 -47.3984375 31.4921875 -46.3984375 28.4921875 C-47.0584375 28.4921875 -47.7184375 28.4921875 -48.3984375 28.4921875 C-47.43881173 17.75010795 -46.3911563 7.76427111 -38.0234375 0.0546875 C-26.57199265 -8.56441705 -11.92460759 -7.49657741 0 0 Z " fill="#050505" transform="translate(194.3984375,145.5078125)"/>
<path d="M0 0 C0 0.66 0 1.32 0 2 C-1.42578125 3.40234375 -1.42578125 3.40234375 -3.3125 4.9375 C-5.66350211 6.86463171 -7.88235135 8.81719293 -10 11 C-10.33 10.34 -10.66 9.68 -11 9 C-9.87895467 7.68412059 -8.75303035 6.37239647 -7.625 5.0625 C-6.99851563 4.33160156 -6.37203125 3.60070312 -5.7265625 2.84765625 C-3.78013965 0.76471958 -2.86558444 0 0 0 Z " fill="#737371" transform="translate(162,143)"/>
<path d="M0 0 C3.00198845 3.00198845 3.95992537 4.95805953 4.125 9.25 C4.08375 10.1575 4.0425 11.065 4 12 C3.67 12 3.34 12 3 12 C2.67 13.65 2.34 15.3 2 17 C1.67 17 1.34 17 1 17 C0.67 11.39 0.34 5.78 0 0 Z " fill="#B8B7B6" transform="translate(363,349)"/>
<path d="M0 0 C3.96 0 7.92 0 12 0 C12 0.33 12 0.66 12 1 C8.04 1 4.08 1 0 1 C0 0.67 0 0.34 0 0 Z " fill="#FFFFFF" transform="translate(169,138)"/>
</svg>
